<?xml version="1.0" encoding="UTF-8" standalone="no"?>
<!-- Generator: Adobe Illustrator 28.3.0, SVG Export Plug-In . SVG Version: 6.00 Build 0)  -->

<svg
   version="1.1"
   id="Capa_1"
   x="0px"
   y="0px"
   viewBox="0 0 96.670456 134.10001"
   xml:space="preserve"
   sodipodi:docname="bronce - medal.svg"
   width="96.670456"
   height="134.10001"
   inkscape:version="1.3 (0e150ed6c4, 2023-07-21)"
   xmlns:inkscape="http://www.inkscape.org/namespaces/inkscape"
   xmlns:sodipodi="http://sodipodi.sourceforge.net/DTD/sodipodi-0.dtd"
   xmlns="http://www.w3.org/2000/svg"
   xmlns:svg="http://www.w3.org/2000/svg"><defs
   id="defs60" /><sodipodi:namedview
   id="namedview60"
   pagecolor="#5b0000"
   bordercolor="#000000"
   borderopacity="0.25"
   inkscape:showpageshadow="2"
   inkscape:pageopacity="0.0"
   inkscape:pagecheckerboard="0"
   inkscape:deskcolor="#303030"
   inkscape:zoom="5.6568543"
   inkscape:cx="44.37095"
   inkscape:cy="77.516581"
   inkscape:window-width="1920"
   inkscape:window-height="1057"
   inkscape:window-x="-8"
   inkscape:window-y="845"
   inkscape:window-maximized="1"
   inkscape:current-layer="g59"
   showguides="true"><sodipodi:guide
     position="68.28,78.090008"
     orientation="0,-1"
     id="guide60"
     inkscape:locked="false" /><sodipodi:guide
     position="80.880001,47.490007"
     orientation="1,0"
     id="guide61"
     inkscape:locked="false" /><sodipodi:guide
     position="15.83,47.510007"
     orientation="1,0"
     id="guide62"
     inkscape:locked="false" /></sodipodi:namedview>&#10;<style
   type="text/css"
   id="style1">&#10;	.st0{fill:#1F4596;}&#10;	.st1{fill:#354E5A;}&#10;	.st2{fill:#FF9B50;}&#10;	.st3{fill:#EA7603;}&#10;	.st4{fill:#FFB448;}&#10;	.st5{opacity:0.69;}&#10;	.st6{fill:#9EA8BA;}&#10;	.st7{fill:#6B7384;}&#10;	.st8{fill:#BAC6D8;}&#10;	.st9{fill:#C5CFE6;}&#10;	.st10{fill:#FFCF03;}&#10;	.st11{fill:#FFA506;}&#10;	.st12{fill:#FFEC03;}&#10;	.st13{fill:#FFDC01;}&#10;	.st14{fill:#FFAA2E;}&#10;	.st15{fill:#FF9912;}&#10;</style>&#10;&#10;<g
   id="g59"
   transform="translate(-212.3,-126.79)"
   inkscape:label="escudo">&#10;		<path
   id="path58"
   style="fill:#ffffff;fill-opacity:1"
   class="st3"
   d="M 257.80977 126.79 L 257.80977 130.29 L 258.86055 130.29 L 258.86055 133.96969 L 255.21992 133.96969 L 255.21992 133.09078 L 251.5793 133.09078 L 251.5793 138.95992 L 255.20039 138.95992 L 255.20039 138.03023 L 258.86055 138.03023 L 258.86055 141.88961 L 257.80977 141.88961 L 257.80977 144.30953 C 213.62985 144.75953 212.3 155.35055 212.3 155.35055 L 212.3 166.87008 C 212.3 170.71006 213.63078 170.62984 215.10078 171.37984 C 215.87078 171.74984 227.5207 175.50094 227.5207 175.50094 L 227.5207 176.0107 L 222.48945 178.43063 C 219.50947 180.06061 219.69063 182.38961 219.69063 182.38961 L 219.69063 194.13961 C 219.69063 195.90961 219.93039 196.13031 221.20039 197.11031 C 222.41039 198.05031 224.62031 199.80953 224.62031 199.80953 L 213.48945 207.09078 L 221.15938 209.61031 L 221.15938 217.94039 L 228.13008 213.37984 L 228.13008 245.68063 C 228.13008 247.37061 228.43078 251.12908 230.85078 253.82906 C 232.62078 255.77906 235.12 256.7607 238.3 256.7607 L 251.71016 256.7607 C 255.91014 256.7607 260.66914 260.88961 260.66914 260.88961 C 260.66914 260.88961 265.19908 256.7607 269.58906 256.7607 L 282.98945 256.7607 C 286.18945 256.7607 288.71016 255.77906 290.46016 253.82906 C 292.88014 251.12908 293.20039 247.37061 293.20039 245.68063 L 293.18086 213.39938 L 300.11055 217.95016 L 300.11055 209.62008 L 307.78047 207.10055 L 296.64961 199.8193 C 296.64961 199.8193 298.87953 198.07008 300.06953 197.12008 C 301.33953 196.14008 301.5793 195.91936 301.5793 194.14938 L 301.5793 182.39938 C 301.5793 182.39938 301.78092 180.08039 298.76094 178.44039 L 293.74922 176.02047 L 293.74922 175.5107 C 293.74922 175.5107 305.40914 171.76961 306.16914 171.38961 C 307.63914 170.63961 308.96992 170.71984 308.96992 166.87984 L 308.96992 155.36031 C 308.99992 155.36031 307.69037 144.76953 263.53047 144.30953 L 263.53047 141.88961 L 262.46016 141.88961 L 262.46016 138.03023 L 266.12031 138.03023 L 266.12031 138.95992 L 269.76094 138.95992 L 269.76094 133.09078 L 266.10078 133.09078 L 266.10078 133.96969 L 262.45039 133.96969 L 262.45039 130.29 L 263.49922 130.29 L 263.49922 126.79 L 257.80977 126.79 z M 258.60078 127.69039 L 262.71016 127.69039 L 262.71016 129.62008 L 261.73945 129.62008 L 261.73945 134.87984 L 266.88984 134.87984 L 266.88984 134.0693 L 268.96016 134.0693 L 268.96016 138.04977 L 267.03047 138.04977 L 267.03047 137.3193 L 261.76094 137.3193 L 261.76094 142.47945 L 262.71992 142.47945 L 262.71992 144.29 L 260.66914 144.29 L 258.60078 144.29 L 258.60078 142.47945 L 259.56953 142.47945 L 259.56953 137.3193 L 254.31953 137.3193 L 254.31953 138.04977 L 252.37031 138.04977 L 252.37031 134.0693 L 254.46016 134.0693 L 254.46016 134.87984 L 259.58906 134.87984 L 259.58906 129.62008 L 258.60078 129.62008 L 258.60078 127.69039 z M 254.08906 128.21969 L 254.08906 129.34078 L 252.97969 129.34078 L 252.97969 131.11031 L 254.08906 131.11031 L 254.08906 132.25094 L 255.86055 132.25094 L 255.86055 131.11031 L 256.96992 131.11031 L 256.96992 129.34078 L 255.86055 129.34078 L 255.86055 128.21969 L 254.08906 128.21969 z M 265.70039 128.21969 L 265.70039 129.34078 L 264.58906 129.34078 L 264.58906 131.11031 L 265.70039 131.11031 L 265.70039 132.25094 L 267.46992 132.25094 L 267.46992 131.11031 L 268.5793 131.11031 L 268.5793 129.34078 L 267.46992 129.34078 L 267.46992 128.21969 L 265.70039 128.21969 z M 254.33906 128.46969 L 255.58906 128.46969 L 255.58906 129.59078 L 256.70039 129.59078 L 256.70039 130.85055 L 255.58906 130.85055 L 255.58906 131.96969 L 254.33906 131.96969 L 254.33906 130.85055 L 253.22969 130.85055 L 253.22969 129.59078 L 254.33906 129.59078 L 254.33906 128.46969 z M 265.95039 128.46969 L 267.20039 128.46969 L 267.20039 129.59078 L 268.30977 129.59078 L 268.30977 130.85055 L 267.20039 130.85055 L 267.20039 131.96969 L 265.95039 131.96969 L 265.95039 130.85055 L 264.83906 130.85055 L 264.83906 129.59078 L 265.95039 129.59078 L 265.95039 128.46969 z M 254.08906 139.48922 L 254.08906 140.62984 L 252.97969 140.62984 L 252.97969 142.39938 L 254.08906 142.39938 L 254.08906 143.54 L 255.86055 143.54 L 255.86055 142.39938 L 256.96992 142.39938 L 256.96992 140.62984 L 255.86055 140.62984 L 255.86055 139.48922 L 254.08906 139.48922 z M 265.69063 139.50094 L 265.69063 140.63961 L 264.5793 140.63961 L 264.5793 142.40914 L 265.69063 142.40914 L 265.69063 143.54977 L 267.46016 143.54977 L 267.46016 142.40914 L 268.56953 142.40914 L 268.56953 140.63961 L 267.46016 140.63961 L 267.46016 139.50094 L 265.69063 139.50094 z M 254.35078 139.77047 L 255.60078 139.77047 L 255.60078 140.90914 L 256.71016 140.90914 L 256.71016 142.12984 L 255.60078 142.12984 L 255.60078 143.27047 L 254.35078 143.27047 L 254.35078 142.12984 L 253.23945 142.12984 L 253.23945 140.90914 L 254.35078 140.90914 L 254.35078 139.77047 z M 265.95039 139.77047 L 267.20039 139.77047 L 267.20039 140.90914 L 268.30977 140.90914 L 268.30977 142.12984 L 267.20039 142.12984 L 267.20039 143.27047 L 265.95039 143.27047 L 265.95039 142.12984 L 264.83906 142.12984 L 264.83906 140.90914 L 265.95039 140.90914 L 265.95039 139.77047 z M 260.71016 145.77047 C 300.12008 145.77047 306.76094 154.04 306.76094 154.04 C 306.63094 154.14 305.67914 154.63094 305.91914 154.75094 C 306.17914 154.83094 306.83094 155.75039 306.51094 155.69039 C 306.21094 155.65039 305.36086 156.04016 305.68086 156.20016 C 305.98086 156.36016 306.67094 157.3593 306.51094 157.3193 C 306.39094 157.2593 305.44086 157.57992 305.68086 157.70992 C 305.92086 157.86992 306.83008 158.96914 306.63008 158.90914 C 306.43008 158.88914 305.44031 159.0907 305.62031 159.2607 C 305.82031 159.5007 306.78953 160.60055 306.56953 160.60055 C 306.38953 160.60055 305.05969 160.60031 305.47969 160.86031 C 305.85969 161.12031 306.78953 162.57023 306.56953 162.53023 C 306.38953 162.47023 304.96063 162.27039 305.44063 162.69039 C 305.86061 163.06039 306.18086 164.29977 306.18086 164.29977 C 294.87088 155.73977 261.22061 156.28953 260.69063 156.30953 C 260.13063 156.28953 226.42029 155.73977 215.12031 164.29977 C 215.12031 164.29977 215.42031 163.06039 215.87031 162.69039 C 216.33031 162.28039 214.91992 162.47023 214.71992 162.53023 C 214.49992 162.57023 215.41977 161.11031 215.80977 160.86031 C 216.22977 160.60031 214.91992 160.60055 214.71992 160.60055 C 214.49992 160.60055 215.47914 159.5007 215.66914 159.2607 C 215.86914 159.0807 214.85936 158.88914 214.65938 158.90914 C 214.45938 158.96914 215.36031 157.86992 215.62031 157.70992 C 215.88031 157.56992 214.9207 157.2593 214.7707 157.3193 C 214.6307 157.3593 215.33031 156.35016 215.62031 156.20016 C 215.94031 156.04016 215.0607 155.65039 214.7707 155.69039 C 214.4707 155.75039 215.13031 154.83094 215.37031 154.75094 C 215.63031 154.63094 214.67078 154.14 214.60078 154.04 C 214.60078 154.04 221.20024 145.77047 260.71016 145.77047 z M 266.64961 148.70992 C 266.12961 148.69992 265.68906 148.96094 265.33906 149.50094 C 264.99906 150.02094 264.82 150.67016 264.8 151.45016 C 264.78 152.22016 264.91992 152.85984 265.21992 153.37984 C 265.53992 153.92984 265.99 154.21945 266.55 154.22945 C 266.86 154.23945 267.13961 154.19078 267.39961 154.09078 C 267.64961 153.99078 267.84039 153.89023 267.95039 153.78023 L 267.97969 152.78023 C 267.98969 152.51023 268.0193 152.32945 268.0793 152.22945 C 268.1393 152.12945 268.26086 152.07906 268.43086 152.07906 L 268.43086 151.87984 L 266.69063 151.84078 L 266.66914 152.04 C 266.85914 152.05 266.98023 152.07984 267.04023 152.12984 C 267.13023 152.20984 267.17914 152.36055 267.16914 152.60055 L 267.14961 153.42086 C 267.14961 153.58086 267.1193 153.70023 267.0793 153.78023 C 266.9993 153.92023 266.85984 153.97945 266.63984 153.97945 C 266.23984 153.96945 265.98078 153.71016 265.85078 153.20016 C 265.72078 152.69016 265.67063 152.10992 265.69063 151.45992 C 265.71061 150.66992 265.80016 150.05008 265.96016 149.62008 C 266.12016 149.19008 266.37063 148.96945 266.69063 148.97945 C 266.99061 148.98945 267.24969 149.20984 267.47969 149.62984 C 267.59969 149.85984 267.7193 150.17906 267.8293 150.57906 L 267.96016 150.57906 L 268.01094 148.7607 L 267.87031 148.7607 C 267.85031 148.8807 267.82047 148.97047 267.78047 149.02047 C 267.74047 149.08047 267.69961 149.11055 267.64961 149.10055 C 267.59961 149.10055 267.4707 149.03914 267.2707 148.90914 C 267.0607 148.77914 266.85961 148.71992 266.64961 148.70992 z M 259.99922 148.71969 L 259.99922 148.92086 C 260.14922 148.93086 260.25 148.9607 260.3 149.0107 C 260.4 149.0907 260.45061 149.23969 260.44063 149.46969 L 260.43086 153.25094 C 260.43086 153.47094 260.38023 153.62992 260.29023 153.70992 C 260.23023 153.75992 260.12969 153.78977 259.97969 153.79977 L 259.97969 154.00094 L 262.95039 154.0107 L 263.15938 152.38961 L 263.0207 152.38961 C 262.8607 152.91961 262.66992 153.27945 262.46992 153.47945 C 262.25992 153.66945 262.00086 153.77047 261.68086 153.77047 C 261.51086 153.77047 261.38906 153.74061 261.33906 153.68063 C 261.28906 153.62063 261.26094 153.51078 261.26094 153.34078 L 261.2707 151.45016 C 261.5607 151.45016 261.76031 151.53969 261.87031 151.71969 C 261.98031 151.89969 262.04906 152.20914 262.08906 152.65914 L 262.21992 152.65914 L 262.22969 150.02047 L 262.10078 150.02047 C 262.04078 150.46047 261.96055 150.77063 261.86055 150.93063 C 261.76055 151.10061 261.5607 151.18086 261.2707 151.17086 L 261.2707 149.36031 C 261.2707 149.21031 261.2893 149.10953 261.3293 149.05953 C 261.3693 149.00953 261.47008 148.98922 261.63008 148.98922 C 262.04008 148.98922 262.31992 149.08047 262.46992 149.27047 C 262.61992 149.46047 262.73 149.79977 262.8 150.29977 L 262.91914 150.29977 L 262.91914 148.72945 L 259.99922 148.71969 z M 257.80977 148.7607 L 256.26094 148.78023 L 256.26094 148.97945 C 256.40094 148.99945 256.49023 149.0293 256.54023 149.0693 C 256.64023 149.1493 256.69063 149.28922 256.69063 149.48922 L 256.74922 153.34078 C 256.74922 153.55078 256.71055 153.69047 256.61055 153.77047 C 256.56055 153.81047 256.45906 153.84031 256.33906 153.86031 L 256.33906 154.05953 L 257.94063 154.04 C 258.52061 154.03 258.97 153.75039 259.3 153.19039 C 259.59 152.70039 259.72969 152.08961 259.72969 151.38961 C 259.71969 150.59961 259.55922 149.9807 259.24922 149.5107 C 258.90922 149.0007 258.42977 148.7507 257.80977 148.7607 z M 268.7707 148.87008 L 268.76094 149.0693 C 268.94094 149.1093 269.04906 149.16922 269.08906 149.23922 C 269.13906 149.31922 269.14984 149.49977 269.13984 149.79977 L 269.0207 152.40914 C 269.0007 152.85914 269.03984 153.23047 269.13984 153.52047 C 269.32984 154.07047 269.72 154.34984 270.3 154.37984 C 270.75 154.39984 271.07977 154.22984 271.30977 153.87984 C 271.52977 153.52984 271.66063 153.02031 271.69063 152.36031 L 271.8 149.87008 C 271.81 149.62008 271.83961 149.45961 271.89961 149.38961 C 271.94961 149.31961 272.05969 149.26945 272.22969 149.22945 L 272.22969 149.02047 L 271.12031 148.96969 L 271.11055 149.17086 C 271.30055 149.20086 271.42945 149.26984 271.48945 149.37984 C 271.54945 149.48984 271.57953 149.67992 271.56953 149.95992 L 271.46992 152.35055 C 271.44992 152.79055 271.39977 153.13008 271.30977 153.37008 C 271.14977 153.81008 270.87945 154.02094 270.48945 154.00094 C 270.17945 153.99094 269.97008 153.78008 269.88008 153.37008 C 269.83008 153.15008 269.8093 152.84016 269.8293 152.45016 L 269.95039 149.84078 C 269.96039 149.54078 269.99953 149.35047 270.06953 149.27047 C 270.13953 149.19047 270.26992 149.14938 270.46992 149.14938 L 270.47969 148.95016 L 268.7707 148.87008 z M 252.78047 148.89938 L 251.22969 148.95992 L 251.23945 149.15914 C 251.36945 149.16914 251.47047 149.19922 251.53047 149.23922 C 251.63047 149.31922 251.68063 149.44938 251.69063 149.64938 L 251.83906 153.50094 C 251.84906 153.71094 251.81016 153.85039 251.71016 153.94039 C 251.66016 153.99039 251.56061 154.02023 251.44063 154.03023 L 251.45039 154.22945 L 253.05 154.17086 C 253.63 154.15086 254.07984 153.85 254.38984 153.29 C 254.66984 152.79 254.8007 152.17945 254.7707 151.47945 C 254.7407 150.68945 254.55922 150.07008 254.24922 149.62008 C 253.89922 149.11008 253.41047 148.87938 252.78047 148.89938 z M 249.28047 148.95992 L 249.13984 148.96969 L 248.26094 153.29977 C 248.19094 153.63977 248.13906 153.85969 248.08906 153.96969 C 248.02906 154.12969 247.92977 154.21922 247.80977 154.23922 L 247.81953 154.44039 L 248.85078 154.37984 L 248.83906 154.18063 C 248.71906 154.18063 248.6393 154.16936 248.5793 154.14938 C 248.4793 154.10938 248.42914 154.03086 248.41914 153.92086 C 248.41914 153.83086 248.43016 153.67945 248.46016 153.47945 C 248.48016 153.38945 248.50953 153.18008 248.56953 152.87008 L 249.71016 152.79977 L 249.87031 153.2607 C 249.90031 153.3607 249.93039 153.45047 249.95039 153.52047 C 249.98039 153.64047 250.00094 153.73 250.01094 153.79 C 250.02094 153.93 250.00039 154.00977 249.95039 154.04977 C 249.90039 154.07977 249.79008 154.10984 249.63008 154.12984 L 249.63984 154.32906 L 251.28047 154.23922 L 251.2707 154.04 C 251.1507 154.05 251.05945 153.99031 250.98945 153.86031 C 250.91945 153.73031 250.80961 153.43922 250.64961 152.98922 L 249.28047 148.95992 z M 274.11055 149.02047 L 272.71992 153.20992 C 272.60992 153.53992 272.52992 153.76055 272.46992 153.85055 C 272.38992 154.00055 272.27936 154.08078 272.15938 154.09078 L 272.14961 154.29 L 273.18086 154.35055 L 273.19063 154.14938 C 273.07063 154.13938 272.99086 154.12078 272.93086 154.09078 C 272.84086 154.03078 272.79 153.95078 272.8 153.84078 C 272.81 153.75078 272.83984 153.59914 272.88984 153.40914 C 272.91984 153.31914 272.97953 153.11953 273.06953 152.80953 L 274.21016 152.87984 L 274.30977 153.36031 C 274.32977 153.47031 274.35055 153.55984 274.36055 153.62984 C 274.38055 153.75984 274.39008 153.84914 274.38008 153.90914 C 274.37008 154.03914 274.34023 154.12914 274.29023 154.15914 C 274.24023 154.18914 274.13016 154.20016 273.96016 154.20016 L 273.95039 154.39938 L 275.58906 154.50094 L 275.60078 154.29977 C 275.49078 154.30977 275.40078 154.24055 275.35078 154.10055 C 275.30078 153.96055 275.22031 153.66039 275.12031 153.19039 L 274.24922 149.03023 L 274.11055 149.02047 z M 257.8 149.03023 C 258.2 149.02023 258.48914 149.33945 258.66914 149.97945 C 258.77914 150.36945 258.84078 150.84938 258.85078 151.39938 C 258.86078 152.30936 258.7693 152.94047 258.5793 153.27047 C 258.3893 153.60047 258.15078 153.77047 257.85078 153.77047 C 257.74078 153.77047 257.67008 153.74086 257.63008 153.67086 C 257.60008 153.60086 257.56953 153.4793 257.56953 153.3193 L 257.51094 149.47945 C 257.51094 149.31945 257.52023 149.20914 257.54023 149.15914 C 257.58023 149.06914 257.66 149.03023 257.8 149.03023 z M 252.79023 149.17086 C 253.19023 149.15086 253.49086 149.46078 253.68086 150.09078 C 253.80086 150.48078 253.86984 150.95094 253.88984 151.50094 C 253.91984 152.43094 253.84914 153.05961 253.66914 153.38961 C 253.48914 153.71961 253.25039 153.89914 252.95039 153.90914 C 252.84039 153.90914 252.76969 153.87953 252.72969 153.80953 C 252.68969 153.73953 252.66936 153.62969 252.65938 153.46969 L 252.51094 149.62984 C 252.50094 149.46984 252.51023 149.35953 252.54023 149.30953 C 252.58023 149.21953 252.66023 149.17086 252.79023 149.17086 z M 276.21016 149.2607 L 276.19063 149.45992 C 276.32061 149.48992 276.41016 149.52906 276.46016 149.57906 C 276.55016 149.66906 276.57953 149.8107 276.56953 150.0107 L 276.26094 153.85055 C 276.24094 154.06055 276.1793 154.20047 276.0793 154.27047 C 276.0193 154.31047 275.93 154.32906 275.8 154.32906 L 275.78047 154.53023 L 277.38008 154.65914 C 277.96008 154.70914 278.43953 154.47016 278.81953 153.95016 C 279.15953 153.49016 279.35914 152.90016 279.41914 152.20016 C 279.46914 151.40016 279.37055 150.77023 279.11055 150.28023 C 278.82055 149.74023 278.36922 149.44961 277.74922 149.38961 L 276.21016 149.2607 z M 245.30977 149.34078 L 243.76094 149.45992 L 243.78047 149.65914 C 243.92047 149.66914 244.00953 149.68945 244.06953 149.72945 C 244.16953 149.79945 244.22945 149.93961 244.23945 150.13961 L 244.54023 153.97945 C 244.56023 154.18945 244.51914 154.33086 244.41914 154.42086 C 244.36914 154.47086 244.27961 154.50047 244.14961 154.52047 L 244.16914 154.71969 L 245.7707 154.59078 C 246.3507 154.55078 246.7793 154.22914 247.0793 153.65914 C 247.3393 153.14914 247.43984 152.54078 247.38984 151.84078 C 247.32984 151.05078 247.14 150.44094 246.8 150.00094 C 246.43 149.52094 245.93975 149.30078 245.30977 149.34078 z M 243.5207 149.48922 L 241.74922 149.65914 L 241.7707 149.86031 C 241.9207 149.86031 242.02906 149.87086 242.08906 149.92086 C 242.18906 149.99086 242.26047 150.14008 242.28047 150.37008 L 242.63984 154.12984 C 242.65984 154.35984 242.63047 154.52031 242.53047 154.61031 C 242.47047 154.66031 242.36969 154.69969 242.22969 154.71969 L 242.24922 154.92086 L 244.0207 154.75094 L 243.99922 154.54977 C 243.84922 154.55977 243.72984 154.52969 243.63984 154.46969 C 243.55984 154.39969 243.49969 154.26 243.47969 154.04 L 243.12031 150.28023 C 243.10031 150.05023 243.12992 149.88977 243.21992 149.79977 C 243.26992 149.74977 243.38023 149.71039 243.54023 149.69039 L 243.5207 149.48922 z M 241.18086 149.54977 L 241.03047 149.5693 C 241.03047 149.6493 241.01922 149.72047 240.99922 149.77047 C 240.97922 149.82047 240.94984 149.85031 240.88984 149.86031 C 240.86984 149.86031 240.7593 149.8307 240.5793 149.7607 C 240.3993 149.6907 240.22023 149.67039 240.04023 149.69039 C 239.68023 149.73039 239.43 149.92047 239.3 150.27047 C 239.16 150.62047 239.11938 150.98031 239.15938 151.36031 C 239.19936 151.72031 239.30016 152.00922 239.46016 152.23922 C 239.62016 152.46922 239.86992 152.68938 240.21992 152.89938 L 240.56953 153.11031 C 240.78953 153.24031 240.93094 153.35039 241.01094 153.44039 C 241.13094 153.58039 241.19992 153.75922 241.21992 153.98922 C 241.23992 154.18922 241.21984 154.38906 241.13984 154.57906 C 241.06984 154.76906 240.92061 154.87938 240.69063 154.89938 C 240.46063 154.92936 240.24047 154.8193 240.03047 154.5693 C 239.82047 154.3293 239.64922 153.92055 239.49922 153.35055 L 239.35078 153.37008 L 239.55977 155.29 L 239.70039 155.27047 C 239.70039 155.18047 239.70969 155.1093 239.72969 155.0693 C 239.73969 155.0193 239.7793 154.98922 239.8293 154.98922 L 239.88008 154.98922 C 239.90008 154.98922 239.92039 155.0007 239.95039 155.0107 L 240.05 155.05953 C 240.16 155.10953 240.26031 155.13914 240.37031 155.15914 C 240.48031 155.17914 240.58086 155.18086 240.68086 155.17086 C 241.12086 155.12086 241.40953 154.91 241.56953 154.54 C 241.72953 154.17 241.78945 153.78936 241.73945 153.39938 C 241.68945 152.97938 241.55906 152.64031 241.33906 152.36031 C 241.24906 152.24031 241.09914 152.11094 240.91914 152.00094 L 240.5207 151.75094 C 240.1807 151.54094 239.96055 151.38047 239.86055 151.27047 C 239.76055 151.16047 239.68936 150.97945 239.65938 150.72945 C 239.63938 150.52945 239.66922 150.35039 239.74922 150.19039 C 239.82922 150.04039 239.95031 149.95061 240.12031 149.93063 C 240.36031 149.90063 240.5707 150.02 240.7707 150.29 C 240.9707 150.55 241.11969 150.8807 241.22969 151.2607 L 241.37031 151.23922 L 241.18086 149.54977 z M 245.3293 149.60055 C 245.7293 149.57055 246.03922 149.85922 246.24922 150.48922 C 246.38922 150.87922 246.4707 151.34938 246.5207 151.89938 C 246.5907 152.81936 246.54031 153.45 246.37031 153.79 C 246.20031 154.13 245.96914 154.31078 245.66914 154.34078 C 245.55914 154.35078 245.48039 154.32094 245.45039 154.25094 C 245.42039 154.18094 245.38031 154.06914 245.37031 153.90914 L 245.06953 150.07906 C 245.05953 149.91906 245.0593 149.81094 245.0793 149.75094 C 245.1093 149.66094 245.1993 149.61055 245.3293 149.60055 z M 281.56953 149.63961 L 280.01094 153.77047 C 279.89094 154.10047 279.79945 154.30938 279.73945 154.39938 C 279.64945 154.54936 279.53914 154.62008 279.41914 154.62008 L 279.39961 154.8193 L 280.43086 154.93063 L 280.45039 154.72945 C 280.34039 154.71945 280.25039 154.68914 280.20039 154.65914 C 280.11039 154.59914 280.0693 154.50936 280.0793 154.39938 C 280.0893 154.30938 280.13063 154.16969 280.19063 153.96969 C 280.22061 153.87969 280.28961 153.67984 280.39961 153.37984 L 281.53047 153.50094 L 281.61055 153.97945 C 281.63055 154.08945 281.63961 154.18094 281.64961 154.25094 C 281.65961 154.38094 281.66936 154.47023 281.65938 154.53023 C 281.64938 154.66023 281.60977 154.74047 281.55977 154.77047 C 281.49977 154.80047 281.38969 154.80977 281.22969 154.79977 L 281.21016 155.00094 L 282.83906 155.17086 L 282.86055 154.96969 C 282.73055 154.96969 282.65078 154.9007 282.60078 154.7607 C 282.55078 154.6207 282.48936 154.32055 282.40938 153.85055 L 281.71016 149.64938 L 281.56953 149.63961 z M 277.71992 149.64938 C 278.11992 149.67936 278.37945 150.03086 278.48945 150.67086 C 278.55945 151.08086 278.5707 151.56031 278.5207 152.11031 C 278.4407 153.03031 278.2993 153.64992 278.0793 153.95992 C 277.8593 154.26992 277.6 154.40961 277.3 154.38961 C 277.19 154.37961 277.11906 154.3407 277.08906 154.2607 C 277.05906 154.1907 277.04977 154.06914 277.05977 153.90914 L 277.38008 150.07906 C 277.39008 149.91906 277.41039 149.8107 277.45039 149.7607 C 277.50039 149.6807 277.58992 149.63938 277.71992 149.64938 z M 283.69063 149.96969 L 283.65938 150.17086 C 283.80936 150.20086 283.90039 150.23977 283.95039 150.29977 C 284.04039 150.38977 284.06023 150.55047 284.04023 150.77047 L 283.55977 154.52047 C 283.52977 154.75047 283.46078 154.88992 283.35078 154.95992 C 283.28078 154.99992 283.18023 155.01094 283.04023 155.00094 L 283.01094 155.20016 L 285.91914 155.5693 L 286.35078 153.84078 L 286.20039 153.8193 C 285.98039 154.3993 285.7507 154.77992 285.5207 154.95992 C 285.2907 155.13992 285.01992 155.21086 284.71992 155.17086 C 284.54992 155.15086 284.43984 155.11 284.38984 155.04 C 284.33984 154.98 284.32078 154.86039 284.35078 154.69039 L 284.81953 151.03023 C 284.85953 150.72023 284.91922 150.53969 284.99922 150.46969 C 285.07922 150.39969 285.22086 150.36961 285.43086 150.38961 L 285.45039 150.19039 L 283.69063 149.96969 z M 237.23555 150.21578 C 237.09555 150.20703 236.9407 150.21422 236.7707 150.23922 L 235.14961 150.45992 L 235.18086 150.65914 C 235.36086 150.65914 235.47047 150.68922 235.53047 150.73922 C 235.62047 150.81922 235.67992 151.00953 235.71992 151.30953 L 236.18086 154.72945 C 236.22086 155.01945 236.20936 155.20977 236.15938 155.29977 C 236.10938 155.38977 235.9993 155.45922 235.8293 155.48922 L 235.86055 155.69039 L 237.55977 155.45992 L 237.53047 155.2607 C 237.35047 155.2707 237.22936 155.23936 237.15938 155.14938 C 237.08938 155.05938 237.02922 154.89031 236.99922 154.61031 L 236.8 153.09078 L 238.3 155.35055 L 239.35078 155.20992 L 239.31953 155.02047 C 239.26953 155.04047 239.23039 155.03047 239.20039 155.02047 C 239.17039 155.01047 239.13078 154.96914 239.10078 154.90914 L 237.72969 152.85055 C 237.89969 152.78055 238.06063 152.64061 238.19063 152.43063 C 238.37061 152.16063 238.43031 151.81961 238.37031 151.38961 C 238.29031 150.81961 238.04055 150.45 237.61055 150.29 C 237.50055 150.25 237.37555 150.22453 237.23555 150.21578 z M 236.7707 150.52047 C 237.0207 150.49047 237.20906 150.60961 237.33906 150.88961 C 237.41906 151.05961 237.4807 151.29078 237.5207 151.59078 C 237.5907 152.07078 237.56061 152.38977 237.44063 152.54977 C 237.32063 152.69977 237.09094 152.81031 236.76094 152.86031 L 236.48945 150.88961 C 236.46945 150.76961 236.4807 150.67984 236.5207 150.62984 C 236.5507 150.56984 236.6407 150.53047 236.7707 150.52047 z M 288.78047 150.55953 L 287.01094 154.61031 C 286.87094 154.93031 286.77016 155.13945 286.71016 155.22945 C 286.61016 155.37945 286.50008 155.44039 286.38008 155.44039 L 286.35078 155.63961 L 287.37031 155.79977 L 287.39961 155.60055 C 287.28961 155.58055 287.19961 155.55047 287.14961 155.52047 C 287.05961 155.45047 287.03023 155.3707 287.04023 155.2607 C 287.05023 155.1707 287.09914 155.03078 287.16914 154.84078 C 287.20914 154.75078 287.27938 154.5607 287.40938 154.2607 L 288.53047 154.44039 L 288.58906 154.93063 C 288.59906 155.04061 288.61031 155.13016 288.62031 155.20016 C 288.63031 155.33016 288.63031 155.41945 288.62031 155.47945 C 288.60031 155.60945 288.55922 155.68969 288.49922 155.71969 C 288.43922 155.74969 288.32914 155.74945 288.16914 155.72945 L 288.13984 155.93063 L 289.76094 156.18063 L 289.79023 155.97945 C 289.68023 155.94945 289.59977 155.86945 289.55977 155.72945 C 289.51977 155.58945 289.46936 155.27953 289.40938 154.80953 L 288.91914 150.57906 L 288.78047 150.55953 z M 234.56953 150.5693 L 231.69063 151.04977 L 231.71992 151.25094 C 231.86992 151.24094 231.97023 151.25 232.04023 151.29 C 232.15023 151.35 232.22094 151.48969 232.26094 151.71969 L 232.88008 155.45016 C 232.92008 155.67016 232.88977 155.83086 232.80977 155.92086 C 232.75977 155.98086 232.6607 156.02953 232.5207 156.05953 L 232.55 156.2607 L 235.47969 155.78023 L 235.41914 154.13961 L 235.28047 154.13961 C 235.21047 154.68961 235.08914 155.07977 234.91914 155.29977 C 234.74914 155.51977 234.50061 155.65969 234.19063 155.71969 C 234.02063 155.74969 233.89906 155.74039 233.83906 155.69039 C 233.77906 155.64039 233.73039 155.53008 233.70039 155.37008 L 233.38984 153.50094 C 233.67984 153.45094 233.89047 153.51086 234.03047 153.67086 C 234.17047 153.83086 234.28961 154.12953 234.39961 154.55953 L 234.53047 154.54 L 234.10078 151.94039 L 233.96992 151.95992 C 233.98992 152.39992 233.95984 152.71938 233.88984 152.89938 C 233.81984 153.07936 233.64078 153.18945 233.35078 153.22945 L 233.05 151.45016 C 233.03 151.30016 233.02977 151.19936 233.05977 151.14938 C 233.08977 151.08938 233.18906 151.05023 233.33906 151.03023 C 233.73906 150.96023 234.02992 151.01086 234.21992 151.17086 C 234.39992 151.33086 234.57016 151.64961 234.71016 152.13961 L 234.8293 152.12008 L 234.56953 150.5693 z M 248.98945 150.71969 L 249.03047 150.71969 L 249.62031 152.50094 L 248.63984 152.54977 L 248.98945 150.71969 z M 273.73945 150.73922 L 273.78047 150.73922 L 274.14961 152.5693 L 273.16914 152.5107 L 273.73945 150.73922 z M 231.36055 151.0693 L 230.30977 151.30953 L 230.35078 151.50094 C 230.53078 151.48094 230.64016 151.4907 230.71016 151.5107 C 230.77016 151.5307 230.82078 151.62047 230.85078 151.77047 C 230.86078 151.83047 230.87031 151.9107 230.87031 152.0107 L 230.87031 152.19039 L 230.73945 154.88961 L 229.38984 152.22945 C 229.36984 152.18945 229.34906 152.16008 229.33906 152.12008 C 229.32906 152.09008 229.31977 152.0507 229.30977 152.0107 C 229.27977 151.8907 229.28906 151.8007 229.33906 151.7607 C 229.38906 151.7207 229.49914 151.67008 229.66914 151.62008 L 229.63008 151.43063 L 227.96016 151.77047 L 227.99922 151.95992 C 228.11922 151.94992 228.21047 151.97977 228.28047 152.04977 C 228.35047 152.11977 228.4307 152.24086 228.5207 152.42086 L 230.72969 156.73922 L 230.86055 156.70992 L 231.0793 151.97945 C 231.0893 151.74945 231.11938 151.57945 231.15938 151.47945 C 231.19936 151.37945 231.27961 151.3107 231.39961 151.2607 L 231.36055 151.0693 z M 291.44063 151.11031 L 291.40938 151.30953 C 291.57936 151.34953 291.69922 151.39992 291.74922 151.45992 C 291.83922 151.54992 291.85977 151.71016 291.80977 151.95016 L 291.0207 156.21969 C 290.9807 156.42969 290.93984 156.57914 290.88984 156.65914 C 290.80984 156.79914 290.7 156.85906 290.55 156.82906 C 290.49 156.81906 290.44914 156.79094 290.41914 156.75094 C 290.38914 156.70094 290.37984 156.6393 290.38984 156.5693 C 290.38984 156.5493 290.42945 156.48984 290.48945 156.37984 C 290.54945 156.26984 290.59031 156.16023 290.62031 156.03023 C 290.65031 155.88023 290.63906 155.74961 290.58906 155.63961 C 290.54906 155.51961 290.47008 155.46039 290.38008 155.44039 C 290.28008 155.42039 290.19078 155.45977 290.10078 155.54977 C 290.01078 155.63977 289.93936 155.78945 289.90938 155.97945 C 289.86938 156.21945 289.90094 156.45063 290.01094 156.68063 C 290.12094 156.91061 290.3 157.05055 290.55 157.10055 C 290.9 157.16055 291.20039 157.06 291.45039 156.79 C 291.70039 156.52 291.86992 156.1193 291.96992 155.5693 L 292.5793 152.2607 C 292.6293 151.9507 292.70047 151.77016 292.78047 151.70016 C 292.86047 151.63016 292.97938 151.61008 293.15938 151.62008 L 293.20039 151.43063 L 291.44063 151.11031 z M 281.13008 151.32906 L 281.16914 151.32906 L 281.46992 153.18063 L 280.48945 153.07906 L 281.13008 151.32906 z M 295.11055 151.71969 L 293.08906 155.64938 C 292.92906 155.95936 292.81922 156.16094 292.74922 156.25094 C 292.63922 156.39094 292.52936 156.45039 292.40938 156.44039 L 292.37031 156.62984 L 293.38008 156.85055 L 293.41914 156.65914 C 293.30914 156.62914 293.23086 156.59953 293.18086 156.55953 C 293.10086 156.48953 293.06906 156.4 293.08906 156.29 C 293.10906 156.2 293.15922 156.05984 293.24922 155.87984 C 293.28922 155.78984 293.3807 155.6093 293.5207 155.3193 L 294.63008 155.55953 L 294.64961 156.04977 C 294.65961 156.15977 294.65938 156.2493 294.65938 156.3193 C 294.65938 156.4493 294.64984 156.54055 294.63984 156.60055 C 294.60984 156.73055 294.57094 156.80906 294.51094 156.82906 C 294.45094 156.84906 294.34086 156.8493 294.18086 156.8193 L 294.13984 157.0107 L 295.73945 157.36031 L 295.78047 157.17086 C 295.67047 157.16086 295.59953 157.08061 295.56953 156.93063 C 295.53953 156.79063 295.50969 156.48094 295.47969 156.00094 L 295.24922 151.75094 L 295.11055 151.71969 z M 227.63984 151.86031 L 225.90938 152.27047 L 225.96016 152.45992 C 226.11016 152.42992 226.22023 152.43969 226.29023 152.46969 C 226.40023 152.51969 226.49023 152.65961 226.54023 152.88961 L 227.41914 156.5693 C 227.46914 156.7893 227.46008 156.95953 227.38008 157.05953 C 227.33008 157.11953 227.23078 157.16992 227.10078 157.20992 L 227.14961 157.39938 L 228.88008 156.98922 L 228.8293 156.79977 C 228.6693 156.83977 228.55039 156.83023 228.45039 156.78023 C 228.36039 156.73023 228.27969 156.58984 228.22969 156.37984 L 227.35078 152.70016 C 227.30078 152.47016 227.30984 152.30992 227.38984 152.20992 C 227.43984 152.14992 227.54063 152.09977 227.69063 152.04977 L 227.63984 151.86031 z M 288.2707 152.23922 L 288.30977 152.25094 L 288.51094 154.11031 L 287.54023 153.95016 L 288.2707 152.23922 z M 297.29023 152.3193 L 297.23945 152.5107 C 297.39945 152.5807 297.50047 152.64969 297.53047 152.71969 C 297.58047 152.82969 297.55969 153.0293 297.47969 153.3193 L 296.55977 156.64938 C 296.47977 156.92936 296.39953 157.10086 296.31953 157.17086 C 296.23953 157.24086 296.11061 157.24969 295.94063 157.21969 L 295.88984 157.40914 L 297.54023 157.87008 L 297.58906 157.68063 C 297.41906 157.62063 297.32023 157.54061 297.29023 157.43063 C 297.26023 157.32063 297.28078 157.14008 297.35078 156.87008 L 297.76094 155.39938 L 298.24922 158.0693 L 299.2707 158.35055 L 299.31953 158.17086 C 299.26953 158.14086 299.23992 158.12078 299.21992 158.09078 C 299.18992 158.06078 299.17914 158.02016 299.16914 157.95016 L 298.71992 155.52047 C 298.90992 155.52047 299.10977 155.4493 299.30977 155.3193 C 299.57977 155.1393 299.77008 154.85039 299.88008 154.44039 C 300.03008 153.89039 299.94055 153.44984 299.61055 153.12984 C 299.44055 152.96984 299.19055 152.84094 298.86055 152.75094 L 297.29023 152.3193 z M 225.60078 152.34078 L 224.55 152.63961 L 224.60078 152.82906 C 224.79078 152.79906 224.9207 152.83086 225.0207 152.92086 C 225.1107 153.01086 225.1907 153.18039 225.2707 153.44039 L 225.89961 155.64938 L 225.88008 155.65914 L 223.30977 153.00094 L 222.28047 153.29 L 222.3293 153.47945 C 222.3893 153.46945 222.44922 153.49047 222.49922 153.52047 C 222.54922 153.56047 222.67961 153.67938 222.89961 153.89938 L 223.90938 157.45992 C 223.96936 157.64992 223.98016 157.81086 223.96016 157.92086 C 223.94016 158.03086 223.82961 158.12063 223.64961 158.18063 L 223.70039 158.37008 L 224.80977 158.05953 L 224.76094 157.87008 C 224.55094 157.91008 224.40023 157.86945 224.29023 157.72945 C 224.22023 157.64945 224.14906 157.4907 224.08906 157.2607 L 223.24922 154.3193 L 223.28047 154.30953 L 226.56953 157.70992 L 226.71016 157.67086 L 225.45039 153.23922 C 225.38039 153.00922 225.35984 152.85047 225.38984 152.77047 C 225.41984 152.69047 225.50961 152.61023 225.64961 152.53023 L 225.60078 152.34078 z M 298.7707 152.98922 C 299.0107 153.05922 299.13961 153.24953 299.14961 153.55953 C 299.15961 153.73953 299.12023 153.98047 299.04023 154.27047 C 298.89023 154.75047 298.73953 155.02984 298.56953 155.12984 C 298.39953 155.21984 298.1493 155.22936 297.8293 155.14938 L 298.36055 153.22945 C 298.39055 153.11945 298.42945 153.04094 298.48945 153.00094 C 298.53945 152.96094 298.6407 152.95922 298.7707 152.98922 z M 294.49922 153.36031 L 294.54023 153.37008 L 294.63008 155.23922 L 293.65938 155.03023 L 294.49922 153.36031 z M 221.78047 153.43063 L 220.72969 153.80953 L 220.8 154.00094 C 220.99 153.95094 221.13969 153.97 221.22969 154.04 C 221.32969 154.12 221.4307 154.28977 221.5207 154.54977 L 222.33906 156.79 C 222.48906 157.2 222.56906 157.54 222.58906 157.79 C 222.61906 158.26 222.4393 158.56039 222.0793 158.69039 C 221.7893 158.80039 221.5207 158.68078 221.2707 158.34078 C 221.1407 158.16078 221.00031 157.8807 220.87031 157.5107 L 219.96992 155.05953 C 219.86992 154.77953 219.83031 154.58922 219.87031 154.48922 C 219.90031 154.38922 220.01063 154.29969 220.19063 154.21969 L 220.12031 154.03023 L 218.51094 154.62008 L 218.5793 154.80953 C 218.7593 154.77953 218.88039 154.79078 218.95039 154.84078 C 219.02039 154.89078 219.11016 155.05906 219.21016 155.32906 L 220.11055 157.78023 C 220.27055 158.20023 220.44961 158.5307 220.64961 158.7607 C 221.03961 159.1907 221.5 159.30055 222.05 159.10055 C 222.47 158.95055 222.71047 158.66094 222.78047 158.25094 C 222.85047 157.84094 222.77023 157.32016 222.54023 156.70016 L 221.70039 154.37984 C 221.61039 154.13984 221.58055 153.97936 221.61055 153.89938 C 221.63055 153.81938 221.71078 153.72008 221.85078 153.62008 L 221.78047 153.43063 z M 302.64961 153.8193 L 300.13984 157.45992 C 299.93984 157.74992 299.79992 157.9307 299.71992 158.0107 C 299.59992 158.1307 299.47055 158.17936 299.36055 158.14938 L 299.29023 158.34078 L 300.26094 158.69039 L 300.3293 158.50094 C 300.2193 158.46094 300.15078 158.41008 300.10078 158.37008 C 300.03078 158.29008 300.01 158.20078 300.05 158.09078 C 300.08 158.00078 300.15094 157.87016 300.26094 157.70016 C 300.31094 157.62016 300.43078 157.44061 300.60078 157.18063 L 301.66914 157.55953 L 301.63008 158.04977 C 301.62008 158.15977 301.61078 158.2493 301.60078 158.3193 C 301.58078 158.4493 301.56023 158.54055 301.54023 158.60055 C 301.49023 158.73055 301.44008 158.79953 301.38008 158.80953 C 301.32008 158.81953 301.21 158.8107 301.05 158.7607 L 300.97969 158.95016 L 302.53047 159.5107 L 302.60078 159.3193 C 302.49078 159.2893 302.42936 159.18977 302.40938 159.04977 C 302.39938 158.89977 302.41063 158.59008 302.44063 158.12008 L 302.78047 153.87008 L 302.64961 153.8193 z M 230.73945 154.89938 L 230.74922 154.90914 L 230.73945 154.90914 L 230.73945 154.89938 z M 301.81953 155.37984 L 301.86055 155.38961 L 301.71016 157.25094 L 300.78047 156.92086 L 301.81953 155.37984 z M 257.15352 157.80563 C 259.23819 157.78125 260.51914 157.80453 260.66914 157.80953 C 261.26914 157.78953 279.94924 157.46063 295.74922 161.18063 C 295.74922 161.18063 283.70008 165.23984 282.63008 165.62984 C 281.75008 165.96984 279.55 166.5793 279.55 169.5693 L 279.55 179.69039 C 279.55 179.69039 279.6093 181.39977 280.5793 182.79977 L 280.54023 182.79977 L 265.61055 176.98922 C 265.61055 176.98922 265.2093 175.91016 265.8293 175.45016 C 265.8293 175.45016 267.62055 173.90914 268.36055 171.40914 C 268.36055 171.40914 269.96992 170.94061 269.96992 169.18063 C 269.96992 167.45063 268.63984 167.00094 268.63984 167.00094 C 268.63984 167.00094 267.17014 159.73016 260.71016 159.70016 L 260.66914 159.70016 L 260.64961 159.70016 C 254.18963 159.74016 252.71992 167.00094 252.71992 167.00094 C 252.71992 167.00094 251.38984 167.45063 251.38984 169.18063 C 251.38984 170.93061 252.99922 171.40914 252.99922 171.40914 C 253.71922 173.90914 255.5207 175.45016 255.5207 175.45016 C 256.1407 175.90016 255.70039 176.98922 255.70039 176.98922 L 240.8 182.79977 L 240.71992 182.79977 C 241.68992 181.37977 241.74922 179.69039 241.74922 179.69039 L 241.74922 169.5693 C 241.74922 166.5793 239.53914 165.96984 238.66914 165.62984 C 237.59914 165.23984 225.55 161.18063 225.55 161.18063 C 237.41498 158.39063 250.89946 157.87874 257.15352 157.80563 z M 260.08906 161.23922 L 260.08906 163.0107 C 260.08906 163.0107 257.74053 162.81906 254.86055 165.07906 C 254.86055 165.07906 255.80908 161.62922 260.08906 161.23922 z M 261.26094 161.23922 C 265.55092 161.62922 266.48945 165.07906 266.48945 165.07906 C 263.58947 162.81906 261.26094 163.0107 261.26094 163.0107 L 261.26094 161.23922 z M 260.66914 165.23922 L 260.69063 165.23922 C 265.40061 165.23922 267.21016 167.20992 267.21016 167.20992 L 267.21016 170.13961 C 265.06016 172.32961 260.80914 172.05023 260.66914 172.03023 C 260.50914 172.05023 256.28053 172.31961 254.11055 170.13961 L 254.11055 167.20992 C 254.11055 167.20992 255.93916 165.23922 260.66914 165.23922 z M 260.69063 166.20016 L 259.5793 168.73922 L 260.69063 171.29977 L 261.76094 168.73922 L 260.69063 166.20016 z M 258.03047 166.54 L 257.0793 168.73922 L 258.03047 170.95016 L 258.96016 168.73922 L 258.03047 166.54 z M 263.51094 166.54 L 262.5793 168.73922 L 263.51094 170.95016 L 264.44063 168.73922 L 263.51094 166.54 z M 255.58906 166.96969 L 254.86055 168.73922 L 255.58906 170.48922 L 256.35078 168.73922 L 255.58906 166.96969 z M 265.90938 166.96969 L 265.14961 168.73922 L 265.90938 170.48922 L 266.64961 168.73922 L 265.90938 166.96969 z M 239.03438 171.65914 L 237.54414 173.40523 L 239.65156 173.04586 L 237.44258 175.15133 L 239.70234 175.10055 L 237.49336 176.79586 L 239.65156 176.79586 L 237.28828 178.49117 L 239.65156 178.44039 L 237.54414 180.59664 L 239.60078 180.59664 L 237.54414 182.19039 L 238.57344 182.44625 L 237.89375 182.79977 L 228.13008 182.79977 L 228.13008 187.79195 L 226.24336 188.76656 L 222.13203 190.87203 L 223.10859 189.3818 L 220.95234 189.53609 L 223.05781 187.73922 L 220.89961 187.73922 L 223.16133 185.58102 L 221.00313 185.6318 L 223.16133 183.83492 L 221.00313 183.78219 L 222.90352 182.03609 L 220.95234 181.98531 L 222.90352 180.59859 L 221.72188 180.4443 L 222.33906 180.18648 C 222.68583 179.9553 223.27683 179.61579 223.96797 179.23531 C 224.6591 178.85482 225.45031 178.43367 226.19844 178.04195 C 227.69469 177.2585 229.0168 176.59078 229.0168 176.59078 L 239.03438 171.65914 z M 282.27656 171.65914 L 292.29414 176.59078 C 292.29414 176.59078 293.61625 177.2585 295.1125 178.04195 C 295.86063 178.43367 296.65184 178.85482 297.34297 179.23531 C 298.03411 179.61579 298.62511 179.9553 298.97188 180.18648 L 299.58906 180.4443 L 298.40742 180.59859 L 300.35859 181.98531 L 298.40742 182.03609 L 300.30781 183.78219 L 298.14961 183.83492 L 300.30781 185.6318 L 298.14961 185.58102 L 300.41133 187.73922 L 298.25313 187.73922 L 300.35859 189.53609 L 298.20234 189.3818 L 299.17891 190.87203 L 295.06758 188.76656 L 293.18086 187.79195 L 293.18086 182.79977 L 283.41719 182.79977 L 282.7375 182.44625 L 283.7668 182.19039 L 281.71016 180.59664 L 283.7668 180.59664 L 281.65938 178.44039 L 284.02266 178.49117 L 281.65938 176.79586 L 283.81758 176.79586 L 281.60859 175.10055 L 283.86836 175.15133 L 281.65938 173.04586 L 283.7668 173.40523 L 282.27656 171.65914 z M 255.31953 172.64938 C 256.62953 173.84936 260.21016 174.39938 260.21016 174.39938 L 260.21016 175.34078 C 260.21016 175.34078 259.59078 175.45914 258.60078 175.15914 L 258.0793 176.11031 C 258.0793 176.11031 258.47938 176.78023 260.65938 176.78023 L 260.68086 176.78023 C 262.87086 176.78023 263.23945 176.11031 263.23945 176.11031 L 262.70039 175.15914 C 261.71039 175.44914 261.08906 175.34078 261.08906 175.34078 L 261.08906 174.39938 C 261.08906 174.39938 264.66922 173.84936 265.99922 172.64938 C 265.99922 172.64938 266.23984 172.80945 266.13984 172.97945 C 266.03984 173.17945 264.29023 175.06977 264.29023 175.29977 L 264.29023 177.20992 C 264.29023 177.44992 262.91961 178.78023 260.64961 178.78023 C 258.40961 178.78023 257.01094 177.43992 257.01094 177.20992 L 257.01094 175.29977 C 257.03094 175.05977 255.36086 173.24945 255.18086 172.97945 C 255.06086 172.79945 255.31953 172.64937 255.31953 172.64938 z M 257.58906 179.02047 L 255.03047 187.60055 L 259.76094 179.68063 L 260.66914 190.59078 L 260.69063 190.59078 L 261.60078 179.68063 L 266.30977 187.60055 L 263.71992 179.02047 L 272.05 184.18063 L 267.33906 179.07906 L 280.41914 184.21969 C 279.42914 186.06969 278.0593 187.12094 276.3293 188.00094 C 274.8593 188.79094 270.86055 189.20016 270.86055 189.20016 C 270.86055 189.20016 268.62945 189.44078 266.48945 191.84078 C 264.95945 193.55078 262.87061 194.81047 260.69063 194.77047 C 258.54063 194.75047 256.32031 193.49078 254.87031 191.84078 C 252.72031 189.44078 250.47969 189.20016 250.47969 189.20016 C 250.47969 189.20016 246.5107 188.79094 245.0207 188.00094 C 243.3307 187.12094 241.91914 186.06969 240.91914 184.21969 L 253.99922 179.07906 L 249.30977 184.18063 L 257.58906 179.02047 z M 229.37031 184.04 L 239.2707 184.04 C 239.6107 185.26 240.82047 188.09047 245.53047 189.77047 C 245.53047 189.77047 247.87914 190.11969 249.16914 190.21969 C 250.77914 190.37969 251.91031 191.22025 252.87031 192.03023 C 253.67031 192.70023 255.24047 194.19063 255.53047 194.43063 C 255.65047 194.55061 255.83 194.69078 256.05 194.84078 L 239.74922 194.84078 L 239.74922 238.47945 C 239.74922 239.59945 240.14906 241.96922 241.83906 243.73922 C 243.00906 244.91922 245.16063 245.97945 246.69063 245.97945 L 255.21992 245.97945 C 257.87992 245.97945 260.70039 248.94039 260.70039 248.94039 C 260.70039 248.94039 263.47977 245.97945 266.55977 245.97945 L 274.61055 245.97945 C 276.96053 245.97945 278.90025 244.71992 280.04023 243.45992 C 281.57023 241.72992 281.85078 239.40023 281.85078 238.03023 L 281.85078 194.84078 L 265.3 194.84078 C 265.54 194.68078 265.69906 194.54061 265.83906 194.43063 C 266.11906 194.19063 267.68922 192.70023 268.49922 192.03023 C 269.42922 191.22025 270.59039 190.37969 272.20039 190.21969 C 273.49039 190.11969 275.81953 189.77047 275.81953 189.77047 C 280.50953 188.10047 281.73977 185.26 282.05977 184.04 L 291.99922 184.04 L 291.99922 245.60055 L 291.98945 245.60055 C 291.98945 247.12055 291.72928 250.62047 289.5793 253.02047 C 288.0693 254.67047 285.85922 255.54 282.99922 255.54 L 269.60078 255.54 C 266.42078 255.54 262.27086 257.55086 260.68086 259.42086 C 259.09086 257.55086 254.95992 255.54 251.71992 255.54 L 238.30977 255.54 C 235.48977 255.54 233.2807 254.68047 231.7707 253.02047 C 229.58072 250.62047 229.37031 247.11055 229.37031 245.60055 L 229.37031 184.04 z M 233.97969 186.97945 L 232.22969 188.75094 L 233.8 190.30953 L 232.22969 191.87984 L 233.97969 193.67086 L 235.55 192.10055 L 237.12031 193.67086 L 238.87031 191.87984 L 237.3 190.30953 L 238.87031 188.75094 L 237.12031 186.97945 L 235.55 188.54977 L 233.97969 186.97945 z M 284.39961 186.97945 L 282.66914 188.75094 L 284.21992 190.30953 L 282.66914 191.87984 L 284.39961 193.67086 L 285.96992 192.10055 L 287.54023 193.67086 L 289.29023 191.87984 L 287.73945 190.30953 L 289.29023 188.75094 L 287.54023 186.97945 L 285.96992 188.54977 L 284.39961 186.97945 z M 241.24922 196.38961 L 280.31953 196.38961 L 280.31953 236.98922 C 280.31953 238.73922 280.36031 241.07922 278.87031 242.73922 C 277.84031 243.89922 276.37039 244.46969 273.70039 244.46969 L 266.68086 244.46969 C 263.10086 244.46969 260.70039 247.22945 260.70039 247.22945 C 260.70039 247.22945 258.52092 244.46969 254.76094 244.46969 L 247.38984 244.46969 C 245.47986 244.46969 243.83094 243.97975 242.76094 242.79977 C 241.33094 241.16977 241.24922 238.99945 241.24922 237.97945 L 241.24922 196.38961 z M 260.63008 197.82906 C 257.41008 197.82906 256.33906 200.38961 256.33906 200.38961 C 256.33906 200.38961 252.99961 200.24953 251.64961 202.80953 C 250.31961 205.38953 251.16914 206.59078 251.16914 206.59078 C 251.16914 206.59078 249.47945 208.00063 249.73945 210.68063 C 249.73945 210.68063 250.33977 212.8493 252.05977 214.0693 C 252.05977 214.0693 252.25938 216.65039 255.15938 217.44039 C 257.08936 217.99039 259.45039 217.04977 259.45039 217.04977 L 259.45039 222.0107 C 259.43265 222.02924 256.59746 224.99164 255.61055 225.63961 C 254.62055 226.30961 253.83906 225.60055 253.83906 225.60055 C 253.83906 225.60055 253.79906 224.78961 253.83906 224.63961 C 253.89906 224.47961 254.98945 224.29 254.98945 224.29 L 255.2707 223.52047 L 255.08906 222.96969 C 255.08906 222.96969 254.73016 222.70953 254.46016 222.80953 C 254.32016 223.57953 253.65938 223.24031 253.65938 222.61031 C 253.65938 221.96031 254.55063 222.09953 254.69063 222.05953 C 254.85061 221.99953 254.61055 221.00094 254.61055 221.00094 L 253.95039 220.48922 L 252.71992 220.64938 C 251.58992 219.91938 248.89961 221.50094 248.89961 221.50094 C 248.89961 221.50094 249.08094 222.3307 248.76094 222.7607 C 248.46094 223.2307 248.32094 225.03977 248.26094 225.29977 C 248.20094 225.55977 248.89961 227.19039 248.89961 227.19039 C 248.95961 227.43039 248.96016 228.7607 248.96016 228.7607 C 246.95016 229.3507 246.15922 230.80945 245.99922 230.97945 C 245.85922 231.11945 245.70039 231.12008 245.70039 231.12008 L 247.46992 224.03023 L 245.39961 221.61031 L 242.60078 223.68063 L 242.63984 225.75094 L 243.64961 227.71969 L 244.68086 225.18063 L 244.31953 223.70016 L 245.19063 223.29977 L 246.0793 224.17086 L 244.13008 231.82906 L 244.43086 233.93063 L 244.30977 235.11031 L 244.88984 235.79977 L 245.13008 236.71969 L 244.46992 237.43063 L 244.46992 240.36031 L 247.69063 240.36031 L 245.99922 239.00094 L 245.99922 237.78023 L 247.71016 236.93063 L 248.21016 232.84078 L 253.38008 231.7607 L 255.05 228.43063 L 256.36055 227.40914 L 257.61055 226.92086 L 257.90938 225.19039 L 259.45039 223.83688 L 259.45039 225.89938 L 257.60078 227.87984 L 256.24922 228.45016 L 254.97969 230.87008 L 256.29023 230.52047 L 257.76094 229.5693 L 259.45039 227.70992 L 259.45039 237.92086 C 259.45039 237.92086 258.1607 240.47945 256.2707 240.47945 C 256.2707 240.47945 256.57039 241.70016 259.45039 241.70016 C 259.45039 241.70016 259.83094 244.00094 260.76094 244.00094 C 260.76094 244.00094 262.08906 243.51014 262.08906 241.70016 C 262.08906 241.70016 264.64063 241.55953 265.19063 240.55953 C 265.19063 240.55953 262.21992 239.68055 262.21992 237.85055 L 262.21992 227.05953 L 262.21992 225.87008 L 262.21992 223.8193 L 263.66914 225.18063 L 263.96992 226.90914 L 265.21992 227.39938 L 266.53047 228.42086 L 268.18086 231.75094 L 273.35078 232.82906 L 273.87031 236.92086 L 275.55977 237.77047 L 275.55977 239.00094 L 273.87031 240.37984 L 277.08906 240.37984 L 277.08906 237.45016 L 276.43086 236.73922 L 276.69063 235.8193 L 277.22969 235.12984 L 277.13008 233.95016 L 277.45039 231.85055 L 275.47969 224.19039 L 276.37031 223.3193 L 277.21992 223.71969 L 276.86055 225.20016 L 277.90938 227.73922 L 278.91914 225.75094 L 278.97969 223.68063 L 276.18086 221.61031 L 274.11055 224.03023 L 275.86055 231.12008 C 275.86055 231.12008 275.70023 231.11945 275.54023 230.97945 C 275.42023 230.79945 274.59078 229.3507 272.60078 228.7607 C 272.60078 228.7607 272.59984 227.42039 272.63984 227.19039 C 272.63984 227.19039 273.34 225.55977 273.3 225.29977 C 273.26 225.03977 273.09977 223.2307 272.80977 222.7607 C 272.50977 222.3307 272.64961 221.50094 272.64961 221.50094 C 272.64961 221.50094 270.03078 219.90961 268.85078 220.63961 L 267.65938 220.47945 L 266.99922 220.98922 C 266.99922 220.98922 266.74008 221.98977 266.88008 222.04977 C 267.04008 222.08977 267.93086 221.95055 267.93086 222.60055 C 267.93086 223.23055 267.29984 223.56975 267.13984 222.79977 C 266.85984 222.69977 266.49922 222.95992 266.49922 222.95992 L 266.33906 223.5107 L 266.5793 224.28023 C 266.5793 224.28023 267.68922 224.47984 267.74922 224.62984 C 267.80922 224.78984 267.74922 225.59078 267.74922 225.59078 C 267.74922 225.59078 266.98969 226.29984 265.97969 225.62984 C 264.96969 224.97984 262.21992 221.98922 262.21992 221.98922 L 262.21992 216.98922 C 262.21992 216.98922 263.70023 217.87 264.04023 217.79 C 264.38023 217.73 268.41008 217.94936 269.13008 214.14938 C 269.13008 214.14938 271.74922 212.48078 271.74922 209.84078 C 271.74922 208.07078 270.0793 206.67086 270.0793 206.67086 C 270.0793 206.67086 270.8693 203.70008 269.0793 201.87008 C 267.2493 200.06008 265.26094 200.45016 265.26094 200.45016 C 265.26094 200.45016 263.85006 197.82906 260.63008 197.82906 z M 232.13984 202.46969 L 232.13984 203.72945 L 232.31953 203.72945 C 232.33953 203.46945 232.3593 203.2607 232.5793 203.2607 C 232.7393 203.2607 233.05984 203.43945 233.13984 203.47945 L 234.2707 204.11031 L 232.86055 204.79977 C 232.76055 204.85977 232.6207 204.94039 232.5207 204.94039 C 232.3607 204.94039 232.31953 204.85922 232.31953 204.48922 L 232.13984 204.48922 L 232.13984 206.39938 L 232.31953 206.39938 C 232.33953 206.08938 232.57984 205.94914 232.63984 205.90914 L 234.64961 204.87008 L 235.54023 204.87008 C 236.04023 204.87008 236.04078 205.00938 236.10078 205.39938 L 236.23945 205.39938 L 236.23945 203.40914 L 236.10078 203.40914 C 236.04078 203.82914 236.04023 203.94039 235.54023 203.94039 L 234.40938 203.94039 L 232.54023 202.86031 C 232.36023 202.74031 232.33953 202.58969 232.31953 202.46969 L 232.13984 202.46969 z M 287.73945 202.78023 L 287.73945 202.94039 C 288.70945 203.08039 288.7307 203.64953 288.7707 204.05953 L 285.56953 204.05953 C 285.06953 204.05953 285.05094 203.9007 285.01094 203.5107 L 284.87031 203.5107 L 284.87031 205.54 L 285.01094 205.54 C 285.05094 205.13 285.04953 204.98922 285.56953 204.98922 L 288.7707 204.98922 C 288.7307 205.37922 288.70945 205.95078 287.73945 206.09078 L 287.73945 206.25094 L 288.95039 206.22945 L 288.95039 202.79977 L 287.73945 202.78023 z M 252.33906 206.62008 C 252.33906 206.62008 253.30953 206.93062 254.06953 206.93063 C 254.85953 206.93063 255.78047 206.62008 255.78047 206.62008 C 255.78047 206.62008 255.52055 207.60055 254.11055 207.60055 C 252.72055 207.60055 252.33906 206.62008 252.33906 206.62008 z M 258.89961 206.62008 C 258.89961 206.62008 259.86914 206.93062 260.66914 206.93063 C 261.40914 206.93063 262.38008 206.62008 262.38008 206.62008 C 262.38008 206.62008 262.08061 207.60055 260.69063 207.60055 C 259.30063 207.60055 258.89961 206.62008 258.89961 206.62008 z M 265.44063 206.62008 C 265.44063 206.62008 266.43016 206.93062 267.21016 206.93063 C 267.94016 206.93063 268.89961 206.62008 268.89961 206.62008 C 268.89961 206.62008 268.62014 207.60055 267.21016 207.60055 C 265.84016 207.60055 265.44063 206.62008 265.44063 206.62008 z M 284.86055 207.50094 L 284.86055 209.43063 L 284.99922 209.43063 C 285.05922 209.04063 285.07977 208.94039 285.55977 208.94039 L 286.74922 208.94039 L 286.74922 209.07906 L 284.87031 210.28023 L 284.87031 211.44039 L 285.01094 211.44039 C 285.01094 211.36039 285.02961 211.28016 285.14961 211.20016 L 286.83906 210.04 C 286.93906 210.35 287.14031 210.95016 287.87031 210.95016 C 288.88031 210.95016 288.94063 209.72906 288.94063 209.32906 L 288.94063 207.50094 L 288.78047 207.50094 C 288.76047 207.82094 288.75992 208.0107 288.21992 208.0107 L 285.55977 208.0107 C 285.07977 208.0107 285.05922 207.89094 284.99922 207.50094 L 284.86055 207.50094 z M 255.55977 208.77047 C 255.55977 208.77047 256.53025 209.07906 257.29023 209.07906 C 258.07023 209.07906 259.0207 208.77047 259.0207 208.77047 C 259.0207 208.77047 258.7393 209.7607 257.3293 209.7607 C 255.9393 209.7607 255.55977 208.77047 255.55977 208.77047 z M 262.46992 208.77047 C 262.46992 208.77047 263.42992 209.07906 264.21992 209.07906 C 264.97992 209.07906 265.90938 208.77047 265.90938 208.77047 C 265.90938 208.77047 265.63094 209.7607 264.26094 209.7607 C 262.83094 209.7607 262.46992 208.77047 262.46992 208.77047 z M 286.95039 208.94039 L 288.46992 208.94039 C 288.66992 208.96039 288.74922 208.98 288.74922 209.29 C 288.74922 209.72 288.47055 209.95992 287.86055 209.95992 C 287.10055 209.95992 286.95039 209.66039 286.95039 208.94039 z M 236.08906 209.46969 C 236.08906 209.74969 235.89094 209.85055 235.26094 210.10055 L 232.0793 211.36031 L 232.0793 211.54 L 235.38008 212.79977 C 235.82008 212.97977 236.04078 213.06055 236.10078 213.35055 L 236.23945 213.35055 L 236.23945 212.19039 L 236.10078 212.19039 C 236.08078 212.41039 236.05953 212.65914 235.81953 212.65914 C 235.71953 212.65914 235.48023 212.56061 235.04023 212.43063 L 235.04023 211.12984 C 235.26023 211.04984 235.68078 210.88961 235.85078 210.88961 C 236.03078 210.88961 236.04906 210.9693 236.08906 211.3193 L 236.22969 211.3193 L 236.22969 209.46969 L 236.08906 209.46969 z M 234.80977 211.22945 L 234.80977 212.32906 L 233.36055 211.79977 L 234.80977 211.22945 z M 252.65938 212.11031 C 252.65938 212.11031 253.62984 212.43062 254.38984 212.43063 C 255.16984 212.43063 256.12031 212.11031 256.12031 212.11031 C 256.12031 212.11031 255.84086 213.09078 254.43086 213.09078 C 253.03086 213.10078 252.65938 212.11031 252.65938 212.11031 z M 265.44063 212.12008 C 265.44063 212.12008 266.43016 212.44039 267.21016 212.44039 C 267.94016 212.44039 268.89961 212.12008 268.89961 212.12008 C 268.89961 212.12008 268.62014 213.10055 267.21016 213.10055 C 265.84016 213.10055 265.44063 212.12008 265.44063 212.12008 z M 284.87031 212.45016 L 284.87031 213.61031 L 285.01094 213.61031 C 285.03094 213.41031 285.0507 213.13961 285.2707 213.13961 C 285.3707 213.13961 285.60953 213.21938 286.06953 213.39938 L 286.06953 214.68063 C 285.86953 214.74061 285.41094 214.94039 285.26094 214.94039 C 285.06094 214.94039 285.0607 214.83922 285.0207 214.48922 L 284.88008 214.48922 L 284.88008 216.34078 L 285.0207 216.34078 C 285.0007 216.04078 285.22031 215.98992 285.87031 215.70992 L 289.03047 214.43063 L 289.03047 214.29 L 285.72969 213.0107 C 285.26969 212.8207 285.07094 212.74016 285.01094 212.45016 L 284.87031 212.45016 z M 286.29023 213.46969 L 287.76094 214.02047 L 286.29023 214.5693 L 286.29023 213.46969 z M 235.10078 214.5693 C 234.44078 214.5693 234.09094 215.00063 234.01094 215.18063 L 233.55 216.03023 C 233.31 216.52023 233.17078 216.62008 232.85078 216.62008 C 232.43078 216.62008 232.2707 216.3207 232.2707 216.0107 C 232.2707 215.3407 232.97008 214.99961 233.38008 214.88961 L 233.38008 214.72945 L 232.08906 214.72945 L 232.08906 214.90914 C 232.18906 214.92914 232.29023 214.97078 232.29023 215.09078 C 232.29023 215.27078 232.08906 215.52094 232.08906 216.00094 C 232.08906 217.07094 232.88047 217.25094 233.28047 217.25094 C 233.54047 217.25094 234.04953 217.2507 234.56953 216.2607 L 234.74922 215.88961 C 234.94922 215.51961 235.08945 215.23922 235.48945 215.23922 C 235.56945 215.23922 236.16914 215.27969 236.16914 215.96969 C 236.16914 216.67969 235.48008 217.00984 234.88008 217.12984 L 234.88008 217.29 L 236.35078 217.29 L 236.35078 217.12984 C 236.29078 217.10984 236.14961 217.06969 236.14961 216.96969 C 236.14961 216.76969 236.35078 216.51922 236.35078 215.98922 C 236.35078 214.92922 235.65078 214.5693 235.10078 214.5693 z M 254.55977 215.12984 C 254.55977 215.12984 255.54977 215.46969 256.30977 215.46969 C 257.07975 215.46969 258.0207 215.12984 258.0207 215.12984 C 258.0207 215.12984 257.74078 216.12984 256.35078 216.12984 C 254.96078 216.12984 254.55977 215.12984 254.55977 215.12984 z M 263.8293 215.12984 C 263.8293 215.12984 264.80078 215.46969 265.60078 215.46969 C 266.33078 215.46969 267.29023 215.12984 267.29023 215.12984 C 267.29023 215.12984 267.01031 216.12984 265.62031 216.12984 C 264.23031 216.12984 263.8293 215.12984 263.8293 215.12984 z M 284.87031 217.5107 L 284.87031 219.36031 C 284.89031 220.56031 285.48945 220.96969 285.98945 220.96969 C 286.67945 220.96969 286.97977 220.36008 287.05977 219.87008 L 287.0793 219.87008 C 287.1593 220.13008 287.29992 220.77047 287.96992 220.77047 C 288.91992 220.77047 288.95039 219.59023 288.95039 219.28023 L 288.95039 217.5107 L 288.79023 217.5107 C 288.77023 217.7707 288.77031 218.02047 288.37031 218.02047 L 285.45039 218.02047 C 285.09039 218.02047 285.05094 217.8407 285.01094 217.5107 L 284.87031 217.5107 z M 232.13984 218.5693 L 232.13984 219.79 L 232.31953 219.79 C 232.35953 219.32 232.53914 219.2607 232.91914 219.2607 L 234.72969 219.2607 L 232.14961 221.25094 L 232.14961 222.45016 L 232.3293 222.45016 C 232.3293 222.39016 232.34922 222.28945 232.74922 221.97945 L 235.61055 221.97945 C 236.01055 221.97945 236.05055 222.11969 236.11055 222.46969 L 236.24922 222.46969 L 236.24922 221.17086 L 236.11055 221.17086 C 236.05055 221.60086 235.92945 221.71969 235.48945 221.71969 L 233.08906 221.71969 L 236.35078 219.18063 L 236.35078 219.00094 L 236.33906 219.00094 L 232.8 219.00094 C 232.5 219.00094 232.35953 218.9593 232.31953 218.5693 L 232.13984 218.5693 z M 285.43086 218.92086 L 286.94063 218.92086 L 286.94063 219.10055 C 286.92063 219.47055 286.84016 219.95992 285.96016 219.95992 C 285.59016 219.96992 285.05 219.8907 285.05 219.2607 C 285.05 219.0207 285.17086 218.92086 285.43086 218.92086 z M 288.45039 218.92086 C 288.61039 218.92086 288.7707 218.93969 288.7707 219.21969 C 288.7707 219.68969 288.40922 219.82906 287.99922 219.82906 C 287.37922 219.82906 287.12031 219.69061 287.12031 218.93063 L 288.45039 218.93063 L 288.45039 218.92086 z M 269.37031 221.21969 L 269.40938 221.82906 L 268.36055 221.37984 L 269.37031 221.21969 z M 252.23945 221.22945 L 253.22969 221.38961 L 252.18086 221.84078 L 252.23945 221.22945 z M 271.0207 221.88961 L 271.71016 222.85055 L 271.0207 223.8193 L 271.0207 221.88961 z M 250.56953 221.89938 L 250.56953 223.82906 L 249.87031 222.87008 L 250.56953 221.89938 z M 284.87031 222.0107 L 284.87031 223.17086 L 285.01094 223.17086 C 285.03094 222.99086 285.0507 222.70016 285.2707 222.70016 C 285.3707 222.70016 285.60953 222.79945 286.06953 222.97945 L 286.06953 224.2607 C 285.86953 224.3207 285.41094 224.52047 285.26094 224.52047 C 285.06094 224.52047 285.0607 224.39977 285.0207 224.04977 L 284.88008 224.04977 L 284.88008 225.89938 L 285.0207 225.89938 C 285.0007 225.63938 285.22031 225.55 285.87031 225.29 L 289.03047 224.0107 L 289.03047 223.85055 L 285.72969 222.59078 C 285.26969 222.41078 285.07094 222.3307 285.01094 222.0107 L 284.87031 222.0107 z M 286.29023 223.04 L 287.76094 223.59078 L 286.29023 224.15914 L 286.29023 223.04 z M 234.98945 223.62008 L 234.98945 223.78023 C 235.89945 224.13023 236.04023 224.73023 236.04023 225.28023 C 236.04023 225.65023 235.98039 225.77047 235.70039 225.77047 L 234.2707 225.77047 C 234.2707 225.20047 234.43086 224.90078 235.18086 224.84078 L 235.18086 224.68063 L 233.14961 224.68063 L 233.14961 224.84078 C 233.90961 224.92078 234.0407 225.22047 234.0207 225.77047 L 232.64961 225.77047 C 232.38961 225.77047 232.35078 225.64906 232.35078 225.32906 C 232.35078 224.55906 232.51055 224.1707 233.36055 224.0107 L 233.36055 223.88961 L 232.13008 223.88961 L 232.13008 227.18063 L 232.30977 227.18063 C 232.32977 226.92063 232.34969 226.69039 232.72969 226.69039 L 235.64961 226.69039 C 236.02961 226.69039 236.02906 226.85063 236.08906 227.18063 L 236.22969 227.18063 L 236.22969 223.86031 L 236.23945 223.86031 L 234.98945 223.62008 z M 249.73945 223.97945 L 249.73945 225.88961 L 249.0207 224.95016 L 249.73945 223.97945 z M 251.71992 223.97945 L 251.71992 225.88961 L 251.03047 224.95016 L 251.71992 223.97945 z M 269.85078 223.97945 L 270.56953 224.94039 L 269.85078 225.88961 L 269.85078 223.97945 z M 271.88008 223.97945 L 272.56953 224.94039 L 271.88008 225.88961 L 271.88008 223.97945 z M 262.22969 225.84078 L 262.22969 227.03023 L 262.22969 227.62984 L 263.8293 229.54977 L 265.3 230.50094 L 266.58906 230.85055 L 265.33906 228.43063 L 263.98945 227.86031 L 262.22969 225.84078 z M 250.56953 226.04977 L 250.56953 227.95992 L 249.87031 227.02047 L 250.56953 226.04977 z M 271.0207 226.04977 L 271.71016 227.02047 L 271.0207 227.95992 L 271.0207 226.04977 z M 285.05 227.02047 C 284.93 227.02047 284.28047 227.13945 284.28047 227.97945 C 284.28047 228.56945 284.52055 229.21969 285.61055 229.21969 L 288.22969 229.21969 C 288.76969 229.21969 288.77023 229.41945 288.79023 229.72945 L 288.95039 229.72945 L 288.95039 227.73922 L 288.79023 227.73922 C 288.77023 228.04922 288.77031 228.30953 288.37031 228.30953 L 285.01094 228.30953 C 284.83094 228.30953 284.48945 228.31086 284.48945 227.92086 C 284.49945 227.78086 284.56914 227.68063 284.66914 227.68063 C 284.84914 227.68063 284.82953 227.8193 285.06953 227.8193 C 285.38953 227.8193 285.53047 227.55061 285.53047 227.43063 C 285.53047 227.25063 285.39 227.02047 285.05 227.02047 z M 232.14961 228.30953 L 232.14961 230.29977 L 232.3293 230.29977 C 232.3493 230.04977 232.36922 229.77047 232.74922 229.77047 L 235.66914 229.77047 C 236.04914 229.77047 236.07055 230.00977 236.11055 230.29977 L 236.24922 230.29977 L 236.24922 228.30953 L 236.11055 228.30953 C 236.06055 228.62953 236.03914 228.84078 235.66914 228.84078 L 232.74922 228.84078 C 232.34922 228.84078 232.3293 228.55953 232.3293 228.30953 L 232.14961 228.30953 z M 284.87031 230.63961 L 284.87031 231.78023 L 285.01094 231.78023 C 285.03094 231.60023 285.0507 231.32906 285.2707 231.32906 C 285.3707 231.32906 285.60953 231.41078 286.06953 231.59078 L 286.06953 232.87008 C 285.86953 232.93008 285.41094 233.12984 285.26094 233.12984 C 285.06094 233.12984 285.0607 233.02914 285.0207 232.65914 L 284.88008 232.65914 L 284.88008 234.53023 L 285.0207 234.53023 C 285.0007 234.25023 285.22031 234.17936 285.87031 233.89938 L 289.03047 232.62008 L 289.03047 232.45992 L 285.72969 231.20016 C 285.26969 231.01016 285.07094 230.92961 285.01094 230.63961 L 284.87031 230.63961 z M 233.2707 231.37008 C 232.2607 231.37008 232.13984 232.42984 232.13984 232.87984 L 232.13984 234.72945 L 232.31953 234.72945 C 232.35953 234.40945 232.36055 234.21969 232.86055 234.21969 L 235.54023 234.21969 C 235.88023 234.23969 235.95922 234.33961 235.99922 234.38961 C 236.03922 234.44961 236.04078 234.44922 236.10078 234.73922 L 236.23945 234.73922 L 236.23945 232.82906 L 236.10078 232.82906 C 236.04078 233.21906 236.02023 233.3193 235.54023 233.3193 L 234.40938 233.3193 C 234.38938 232.5693 234.38914 232.27936 234.16914 231.89938 C 233.90914 231.44938 233.4707 231.37008 233.2707 231.37008 z M 286.29023 231.63961 L 287.76094 232.19039 L 286.29023 232.7607 L 286.29023 231.63961 z M 233.29023 232.37984 C 234.03023 232.37984 234.21016 232.6193 234.21016 233.3193 L 232.5793 233.3193 L 232.5793 233.32906 C 232.4393 233.30906 232.38008 233.22977 232.38008 233.04977 C 232.38008 232.59977 232.60025 232.37984 233.29023 232.37984 z M 249.11055 233.54 L 248.31953 240.46969 L 251.71992 240.46969 L 249.87031 239.11031 L 249.87031 237.89938 L 251.68086 237.12984 L 251.46016 234.94039 L 249.11055 233.54 z M 272.46992 233.55953 L 270.11055 234.95016 L 269.90938 237.13961 L 271.71992 237.90914 L 271.71992 239.12984 L 269.85078 240.48922 L 273.29023 240.48922 L 272.46992 233.55953 z M 235.05 244.77047 L 233.3 246.54 L 234.87031 248.11031 L 233.3 249.69039 L 235.05 251.44039 L 236.60078 249.86031 L 238.19063 251.44039 L 239.91914 249.69039 L 238.37031 248.11031 L 239.91914 246.54 L 238.19063 244.77047 L 236.60078 246.3193 L 235.05 244.77047 z M 282.55 244.78023 L 280.78047 246.54977 L 282.3293 248.12008 L 280.78047 249.70016 L 282.55 251.45016 L 284.0793 249.87008 L 285.64961 251.45016 L 287.41914 249.70016 L 285.85078 248.12008 L 287.41914 246.54977 L 285.64961 244.78023 L 284.0793 246.32906 L 282.55 244.78023 z "
   inkscape:label="path" />&#10;	</g>&#10;</svg>
